<?xml version="1.0" standalone="no"?>
<!DOCTYPE svg PUBLIC "-//W3C//DTD SVG 20010904//EN"
 "http://www.w3.org/TR/2001/REC-SVG-20010904/DTD/svg10.dtd">
<svg version="1.0" xmlns="http://www.w3.org/2000/svg"
 width="1280.000000pt" height="436.000000pt" viewBox="0 0 1280.000000 436.000000"
 preserveAspectRatio="xMidYMid meet">
<metadata>
Created by potrace 1.15, written by Peter Selinger 2001-2017
</metadata>
<g transform="translate(0.000000,436.000000) scale(0.100000,-0.100000)"
fill="#000000" stroke="none">
<path d="M5535 3847 c-68 -16 -559 -147 -575 -154 -8 -3 -22 -7 -30 -8 -44 -5
-149 -39 -147 -48 1 -5 -4 -12 -12 -15 -8 -3 -11 0 -7 7 4 6 3 11 -2 11 -6 0
-254 -66 -553 -146 -688 -184 -755 -202 -806 -215 -24 -6 -43 -16 -43 -21 0
-5 -5 -6 -10 -3 -6 4 -34 0 -63 -9 -64 -18 -313 -84 -347 -91 -50 -11 -60 -17
-60 -33 0 -14 -2 -14 -9 -3 -9 14 -9 14 -123 -16 -10 -2 -18 -12 -18 -21 0
-14 -2 -14 -9 -3 -10 15 -61 8 -61 -8 0 -5 -8 -7 -17 -5 -10 2 -49 -4 -88 -14
-64 -17 -70 -21 -67 -43 2 -21 1 -22 -8 -6 -11 16 -60 25 -60 10 0 -5 -12 -8
-28 -9 -15 -1 -53 -9 -85 -18 -50 -14 -57 -20 -52 -36 5 -16 2 -20 -15 -20
-15 0 -20 5 -17 14 4 11 -2 12 -28 6 -42 -10 -55 -18 -55 -36 0 -8 -5 -12 -10
-9 -6 4 -7 11 -4 17 4 6 1 9 -7 6 -8 -3 -14 -18 -14 -36 1 -19 -4 -32 -11 -32
-7 0 -19 -3 -27 -6 -10 -3 -14 0 -14 12 1 9 -5 19 -13 21 -13 4 -13 3 0 -6 13
-10 13 -11 0 -12 -8 -1 -20 -1 -26 0 -6 1 -17 -6 -24 -14 -7 -8 -19 -15 -27
-15 -8 0 -12 -4 -9 -8 3 -5 -1 -9 -8 -9 -8 0 -12 5 -10 11 5 12 -54 42 -63 32
-4 -3 -1 -6 6 -6 7 0 9 -4 6 -10 -8 -14 -42 -13 -47 1 -3 9 -9 9 -25 0 -12 -6
-30 -11 -41 -11 -10 0 -28 -12 -41 -26 -17 -19 -25 -23 -35 -15 -18 15 -106 2
-113 -16 -3 -8 -13 -11 -24 -8 -26 9 -1248 -318 -1260 -337 -4 -5 7 -60 23
-121 16 -62 33 -128 37 -147 13 -54 102 -374 107 -382 3 -4 16 -3 30 2 14 6
30 7 36 4 7 -4 8 5 3 27 -4 19 -11 35 -16 37 -4 2 -6 9 -3 17 3 7 -8 62 -25
122 -51 184 -102 385 -99 389 2 2 67 20 143 39 395 102 1001 268 1005 275 3 5
16 8 30 8 14 -1 57 7 95 18 60 16 73 23 85 49 17 33 55 50 43 18 -4 -10 -11
-21 -17 -25 -22 -15 22 -8 125 21 57 16 160 43 229 61 69 18 129 37 135 42 5
4 18 8 30 8 18 0 354 89 1765 466 1139 305 1364 366 1389 376 14 6 40 12 58
14 29 3 32 0 38 -29 4 -18 13 -41 20 -52 6 -11 16 -42 20 -70 5 -27 10 -42 13
-32 3 15 7 16 18 6 8 -6 18 -9 21 -5 4 4 1 12 -7 17 -12 8 -10 10 8 6 25 -6
27 0 9 25 -7 9 -22 16 -32 15 -11 -1 -20 4 -20 11 0 7 -5 16 -11 20 -6 4 -14
19 -18 34 -5 22 -3 26 9 22 8 -4 15 -15 15 -25 0 -11 7 -19 17 -19 13 0 14 3
5 12 -9 9 -7 14 5 23 13 10 14 18 5 46 -6 19 -13 46 -16 60 -7 33 -20 38 -71
26z m-2935 -827 c0 -5 -7 -7 -15 -4 -8 4 -12 10 -9 15 6 11 24 2 24 -11z
m-750 -200 c0 -5 -5 -10 -11 -10 -5 0 -7 5 -4 10 3 6 8 10 11 10 2 0 4 -4 4
-10z m-340 -114 c0 -3 -4 -8 -10 -11 -5 -3 -10 -1 -10 4 0 6 5 11 10 11 6 0
10 -2 10 -4z m-1100 -510 c0 -3 -4 -8 -10 -11 -5 -3 -10 -1 -10 4 0 6 5 11 10
11 6 0 10 -2 10 -4z m60 -170 c0 -3 -4 -8 -10 -11 -5 -3 -10 -1 -10 4 0 6 5
11 10 11 6 0 10 -2 10 -4z"/>
<path d="M11935 3847 c-68 -16 -559 -147 -575 -154 -8 -3 -22 -7 -30 -8 -44
-5 -149 -39 -147 -48 1 -5 -4 -12 -12 -15 -8 -3 -11 0 -7 7 4 6 3 11 -2 11 -6
0 -254 -66 -553 -146 -688 -184 -755 -202 -806 -215 -24 -6 -43 -16 -43 -21 0
-5 -5 -6 -10 -3 -6 4 -34 0 -63 -9 -64 -18 -313 -84 -347 -91 -50 -11 -60 -17
-60 -33 0 -14 -2 -14 -9 -3 -9 14 -9 14 -123 -16 -10 -2 -18 -12 -18 -21 0
-14 -2 -14 -9 -3 -10 15 -61 8 -61 -8 0 -5 -8 -7 -17 -5 -10 2 -49 -4 -88 -14
-64 -17 -70 -21 -67 -43 2 -21 1 -22 -8 -6 -11 16 -60 25 -60 10 0 -5 -12 -8
-28 -9 -15 -1 -53 -9 -85 -18 -50 -14 -57 -20 -52 -36 5 -16 2 -20 -15 -20
-15 0 -20 5 -17 14 4 11 -2 12 -28 6 -42 -10 -55 -18 -55 -36 0 -8 -5 -12 -10
-9 -6 4 -7 11 -4 17 4 6 1 9 -7 6 -8 -3 -14 -18 -14 -36 1 -19 -4 -32 -11 -32
-7 0 -19 -3 -27 -6 -10 -3 -14 0 -14 12 1 9 -5 19 -13 21 -13 4 -13 3 0 -6 13
-10 13 -11 0 -12 -8 -1 -20 -1 -26 0 -6 1 -17 -6 -24 -14 -7 -8 -19 -15 -27
-15 -8 0 -12 -4 -9 -8 3 -5 -1 -9 -8 -9 -8 0 -12 5 -10 11 5 12 -54 42 -63 32
-4 -3 -1 -6 6 -6 7 0 9 -4 6 -10 -8 -14 -42 -13 -47 1 -3 9 -9 9 -25 0 -12 -6
-30 -11 -41 -11 -10 0 -28 -12 -41 -26 -17 -19 -25 -23 -35 -15 -18 15 -106 2
-113 -16 -3 -8 -13 -11 -24 -8 -26 9 -1248 -318 -1260 -337 -4 -5 7 -60 23
-121 16 -62 33 -128 37 -147 13 -54 102 -374 107 -382 3 -4 16 -3 30 2 14 6
30 7 36 4 7 -4 8 5 3 27 -4 19 -11 35 -16 37 -4 2 -6 9 -3 17 3 7 -8 62 -25
122 -51 184 -102 385 -99 389 2 2 67 20 143 39 395 102 1001 268 1005 275 3 5
16 8 30 8 14 -1 57 7 95 18 60 16 73 23 85 49 17 33 55 50 43 18 -4 -10 -11
-21 -17 -25 -22 -15 22 -8 125 21 57 16 160 43 229 61 69 18 129 37 135 42 5
4 18 8 30 8 18 0 354 89 1765 466 1139 305 1364 366 1389 376 14 6 40 12 58
14 29 3 32 0 38 -29 4 -18 13 -41 20 -52 6 -11 16 -42 20 -70 5 -27 10 -42 13
-32 3 15 7 16 18 6 8 -6 18 -9 21 -5 4 4 1 12 -7 17 -12 8 -10 10 8 6 25 -6
27 0 9 25 -7 9 -22 16 -32 15 -11 -1 -20 4 -20 11 0 7 -5 16 -11 20 -6 4 -14
19 -18 34 -5 22 -3 26 9 22 8 -4 15 -15 15 -25 0 -11 7 -19 17 -19 13 0 14 3
5 12 -9 9 -7 14 5 23 13 10 14 18 5 46 -6 19 -13 46 -16 60 -7 33 -20 38 -71
26z m-2935 -827 c0 -5 -7 -7 -15 -4 -8 4 -12 10 -9 15 6 11 24 2 24 -11z
m-750 -200 c0 -5 -5 -10 -11 -10 -5 0 -7 5 -4 10 3 6 8 10 11 10 2 0 4 -4 4
-10z m-340 -114 c0 -3 -4 -8 -10 -11 -5 -3 -10 -1 -10 4 0 6 5 11 10 11 6 0
10 -2 10 -4z m-1100 -510 c0 -3 -4 -8 -10 -11 -5 -3 -10 -1 -10 4 0 6 5 11 10
11 6 0 10 -2 10 -4z m60 -170 c0 -3 -4 -8 -10 -11 -5 -3 -10 -1 -10 4 0 6 5
11 10 11 6 0 10 -2 10 -4z"/>
<path d="M5468 3713 c-28 -7 -21 -24 8 -21 24 3 29 -3 43 -42 14 -40 16 -42
19 -18 4 31 -23 89 -41 87 -6 -1 -20 -3 -29 -6z"/>
<path d="M11868 3713 c-28 -7 -21 -24 8 -21 24 3 29 -3 43 -42 14 -40 16 -42
19 -18 4 31 -23 89 -41 87 -6 -1 -20 -3 -29 -6z"/>
<path d="M5185 3639 c-121 -33 -566 -152 -990 -265 -423 -113 -792 -212 -820
-220 -47 -13 -521 -140 -1215 -324 -168 -44 -323 -87 -345 -94 -22 -8 -65 -19
-96 -25 -55 -12 -123 -45 -72 -36 40 7 591 154 3068 816 143 39 316 85 385
103 276 73 330 89 330 97 0 13 -8 12 -245 -52z"/>
<path d="M11585 3639 c-121 -33 -566 -152 -990 -265 -423 -113 -792 -212 -820
-220 -47 -13 -521 -140 -1215 -324 -168 -44 -323 -87 -345 -94 -22 -8 -65 -19
-96 -25 -55 -12 -123 -45 -72 -36 40 7 591 154 3068 816 143 39 316 85 385
103 276 73 330 89 330 97 0 13 -8 12 -245 -52z"/>
<path d="M5653 3561 c0 -11 5 -17 9 -15 11 7 10 34 -1 34 -6 0 -9 -9 -8 -19z"/>
<path d="M12053 3561 c0 -11 5 -17 9 -15 11 7 10 34 -1 34 -6 0 -9 -9 -8 -19z"/>
<path d="M5616 3551 c-3 -5 0 -11 7 -14 8 -3 14 1 14 9 0 16 -13 19 -21 5z"/>
<path d="M12016 3551 c-3 -5 0 -11 7 -14 8 -3 14 1 14 9 0 16 -13 19 -21 5z"/>
<path d="M5550 3538 c0 -7 8 -22 17 -33 14 -18 15 -18 9 -2 -3 10 -6 25 -6 33
0 8 -4 14 -10 14 -5 0 -10 -6 -10 -12z"/>
<path d="M11950 3538 c0 -7 8 -22 17 -33 14 -18 15 -18 9 -2 -3 10 -6 25 -6
33 0 8 -4 14 -10 14 -5 0 -10 -6 -10 -12z"/>
<path d="M5605 3520 c3 -5 8 -10 11 -10 2 0 4 5 4 10 0 6 -5 10 -11 10 -5 0
-7 -4 -4 -10z"/>
<path d="M12005 3520 c3 -5 8 -10 11 -10 2 0 4 5 4 10 0 6 -5 10 -11 10 -5 0
-7 -4 -4 -10z"/>
<path d="M5578 3464 c-9 -15 47 -217 61 -222 10 -3 11 2 5 19 -4 13 -19 67
-34 118 -15 52 -29 91 -32 85z"/>
<path d="M5624 3445 c4 -16 8 -39 10 -50 9 -49 29 -114 35 -113 18 2 22 -3 12
-15 -8 -10 -6 -29 6 -70 13 -48 19 -56 34 -52 23 8 26 -20 4 -32 -13 -8 -12
-17 4 -73 14 -53 22 -66 40 -68 15 -3 21 -8 17 -19 -3 -8 -6 -17 -6 -19 0 -3
-4 -2 -10 1 -5 3 -10 -1 -10 -9 0 -8 5 -18 10 -21 6 -4 8 -11 4 -16 -3 -6 2
-17 12 -24 11 -8 14 -15 8 -15 -8 0 -8 -12 -1 -42 17 -76 17 -74 28 -58 7 11
8 8 3 -12 -3 -15 -3 -37 1 -49 7 -20 8 -20 17 -6 5 10 16 17 25 17 13 0 13 3
3 15 -10 12 -10 24 -2 53 15 49 6 79 -29 94 -38 17 -43 34 -19 58 22 22 24 32
11 58 -16 30 -37 109 -39 149 -1 15 -7 21 -16 17 -8 -3 -17 0 -22 7 -4 7 -3
10 4 5 6 -3 13 -2 17 4 8 13 -16 91 -26 84 -5 -3 -19 2 -31 10 -22 15 -22 16
-2 16 17 0 20 6 19 45 -2 34 -8 51 -28 69 -14 13 -29 36 -33 50 -6 26 -24 36
-24 14 0 -6 -7 -3 -16 8 -15 18 -15 18 -10 -11z m88 -237 c-7 -7 -12 -8 -12
-2 0 14 12 26 19 19 2 -3 -1 -11 -7 -17z m63 -128 c3 -5 2 -10 -4 -10 -5 0
-13 5 -16 10 -3 6 -2 10 4 10 5 0 13 -4 16 -10z m69 -236 c23 -9 1 -34 -28
-34 -20 1 -20 1 -2 11 15 9 16 13 5 20 -16 10 1 12 25 3z"/>
<path d="M11978 3464 c-9 -15 47 -217 61 -222 10 -3 11 2 5 19 -4 13 -19 67
-34 118 -15 52 -29 91 -32 85z"/>
<path d="M12024 3445 c4 -16 8 -39 10 -50 9 -49 29 -114 35 -113 18 2 22 -3
12 -15 -8 -10 -6 -29 6 -70 13 -48 19 -56 34 -52 23 8 26 -20 4 -32 -13 -8
-12 -17 4 -73 14 -53 22 -66 40 -68 15 -3 21 -8 17 -19 -3 -8 -6 -17 -6 -19 0
-3 -4 -2 -10 1 -5 3 -10 -1 -10 -9 0 -8 5 -18 10 -21 6 -4 8 -11 4 -16 -3 -6
2 -17 12 -24 11 -8 14 -15 8 -15 -8 0 -8 -12 -1 -42 17 -76 17 -74 28 -58 7
11 8 8 3 -12 -3 -15 -3 -37 1 -49 7 -20 8 -20 17 -6 5 10 16 17 25 17 13 0 13
3 3 15 -10 12 -10 24 -2 53 15 49 6 79 -29 94 -38 17 -43 34 -19 58 22 22 24
32 11 58 -16 30 -37 109 -39 149 -1 15 -7 21 -16 17 -8 -3 -17 0 -22 7 -4 7
-3 10 4 5 6 -3 13 -2 17 4 8 13 -16 91 -26 84 -5 -3 -19 2 -31 10 -22 15 -22
16 -2 16 17 0 20 6 19 45 -2 34 -8 51 -28 69 -14 13 -29 36 -33 50 -6 26 -24
36 -24 14 0 -6 -7 -3 -16 8 -15 18 -15 18 -10 -11z m88 -237 c-7 -7 -12 -8
-12 -2 0 14 12 26 19 19 2 -3 -1 -11 -7 -17z m63 -128 c3 -5 2 -10 -4 -10 -5
0 -13 5 -16 10 -3 6 -2 10 4 10 5 0 13 -4 16 -10z m69 -236 c23 -9 1 -34 -28
-34 -20 1 -20 1 -2 11 15 9 16 13 5 20 -16 10 1 12 25 3z"/>
<path d="M5640 3195 c0 -8 5 -15 10 -15 6 0 10 7 10 15 0 8 -4 15 -10 15 -5 0
-10 -7 -10 -15z"/>
<path d="M12040 3195 c0 -8 5 -15 10 -15 6 0 10 7 10 15 0 8 -4 15 -10 15 -5
0 -10 -7 -10 -15z"/>
<path d="M5670 3097 c0 -24 36 -152 49 -174 16 -28 13 0 -10 90 -20 79 -39
120 -39 84z"/>
<path d="M12070 3097 c0 -24 36 -152 49 -174 16 -28 13 0 -10 90 -20 79 -39
120 -39 84z"/>
<path d="M5206 3072 c-2 -4 -32 -9 -67 -10 -34 -2 -70 -7 -80 -13 -27 -14 -34
-53 -16 -86 9 -15 21 -49 27 -75 13 -50 16 -53 39 -39 8 6 22 6 31 1 10 -5 22
-3 35 7 16 13 17 15 3 10 -21 -7 -23 4 -6 21 10 10 10 15 -2 22 -22 14 -33 12
-27 -4 4 -10 1 -13 -9 -9 -8 3 -13 12 -10 19 3 7 -3 18 -12 24 -14 9 -10 10
17 6 27 -5 37 -1 51 17 13 16 30 23 58 24 48 2 57 -7 80 -78 14 -45 21 -54 40
-53 24 1 30 -11 10 -20 -7 -3 -3 -3 10 0 18 4 22 1 22 -18 0 -13 7 -32 15 -42
20 -27 19 -36 -6 -36 -14 0 -19 -5 -16 -15 4 -8 2 -17 -3 -20 -9 -6 -8 -31 3
-41 4 -4 7 -16 7 -26 0 -10 4 -18 9 -18 5 0 7 -8 4 -19 -3 -10 0 -22 6 -25 6
-4 11 0 11 9 0 14 2 14 24 0 21 -14 24 -14 29 -1 4 9 13 13 22 10 20 -8 19 10
-5 87 -11 36 -29 72 -42 82 -13 10 -17 15 -9 11 11 -5 13 -3 8 11 -5 11 -1 23
10 32 17 14 17 14 -2 10 -11 -3 -29 -8 -40 -13 -19 -7 -19 -6 -4 12 8 10 14
30 12 44 -2 14 -4 35 -4 47 1 12 -4 25 -9 28 -6 3 -7 17 -4 31 7 28 -21 66
-68 90 -29 15 -133 19 -142 6z m174 -142 c0 -5 -9 -10 -20 -10 -11 0 -20 5
-20 10 0 6 9 10 20 10 11 0 20 -4 20 -10z m100 -210 c0 -5 -4 -10 -10 -10 -5
0 -10 5 -10 10 0 6 5 10 10 10 6 0 10 -4 10 -10z m-25 -31 c4 -6 13 -8 21 -5
21 8 17 -12 -5 -24 -24 -12 -41 -13 -21 0 8 5 11 12 7 16 -3 4 -13 1 -22 -6
-13 -11 -14 -10 -8 5 5 14 3 17 -10 12 -9 -3 -17 -2 -17 3 0 13 47 13 55 -1z"/>
<path d="M11464 3038 c-3 -4 -15 -7 -27 -7 -12 0 -46 -3 -75 -7 -41 -5 -57
-13 -70 -31 -14 -23 -14 -28 0 -56 9 -18 22 -56 28 -84 7 -31 17 -53 25 -53 7
0 23 -8 35 -18 l21 -17 -20 -27 c-26 -32 -26 -45 -3 -52 13 -4 19 -16 19 -36
0 -32 9 -48 20 -37 4 4 1 13 -5 19 -17 17 -15 31 3 25 8 -4 17 -2 20 4 4 5 0
12 -8 15 -16 6 -11 44 5 44 5 0 6 -10 3 -21 -5 -15 -4 -19 4 -15 6 4 16 -4 23
-18 6 -14 15 -26 20 -26 14 0 -2 87 -28 159 -29 77 -32 136 -6 146 28 12 76
14 89 3 7 -5 21 -7 32 -3 13 4 24 -1 33 -13 7 -11 25 -19 41 -19 24 0 27 3 27
32 0 33 -22 60 -70 86 -26 14 -129 19 -136 7z m-114 -131 c0 -4 -6 -2 -14 5
-8 7 -12 17 -9 22 5 8 23 -12 23 -27z m104 -160 c-7 -19 -45 -30 -58 -17 -7 7
-2 10 13 10 13 0 21 5 19 12 -3 7 0 18 6 24 14 15 29 -7 20 -29z"/>
<path d="M4690 2954 c-19 -7 -81 -27 -137 -44 -87 -26 -104 -34 -109 -54 -6
-25 72 -268 88 -274 4 -2 8 -10 8 -17 0 -13 24 -15 36 -2 4 4 13 2 21 -4 9 -9
13 -8 13 0 0 6 -5 11 -11 11 -6 0 -8 9 -4 20 8 26 -20 28 -34 3 -8 -14 -10
-15 -10 -3 0 8 6 24 14 34 12 15 17 17 29 7 8 -7 19 -10 25 -7 10 7 7 24 -16
103 -20 66 -12 78 65 94 31 6 62 19 69 28 9 12 15 13 21 4 6 -9 13 -9 32 0 29
15 38 58 19 94 -14 27 -61 30 -119 7z"/>
<path d="M10910 2909 c-47 -15 -111 -36 -143 -45 -83 -23 -89 -41 -50 -141 23
-60 36 -79 54 -84 16 -5 18 -7 7 -8 -25 -1 -12 -28 17 -35 23 -6 23 -7 8 -34
-17 -29 -12 -102 7 -102 6 0 10 -9 10 -20 0 -11 5 -20 10 -20 6 0 8 -11 4 -25
-4 -17 -1 -27 9 -31 11 -4 14 -15 10 -40 -4 -25 -1 -35 10 -40 9 -3 15 -18 15
-37 -1 -18 4 -44 10 -59 14 -35 38 -36 117 -2 57 23 75 28 176 38 23 3 46 9
50 13 17 17 13 72 -5 92 -22 25 -46 26 -89 7 -51 -22 -71 -30 -83 -31 -6 0
-19 -7 -29 -15 -15 -12 -20 -12 -43 1 -27 15 -29 20 -51 150 -6 38 -5 46 7 45
8 -1 17 5 20 13 3 8 0 11 -7 7 -7 -4 -11 1 -11 13 0 27 -17 35 -29 14 -9 -15
-10 -16 -11 -2 0 9 -10 21 -22 28 -13 6 -15 9 -5 7 9 -3 28 -1 42 4 19 7 25 6
25 -4 0 -14 23 -16 36 -3 4 4 13 2 21 -4 9 -9 13 -8 13 0 0 6 -5 11 -11 11 -6
0 -8 9 -4 20 8 25 -22 29 -32 4 -4 -11 -8 -12 -13 -4 -4 6 -21 12 -39 12 -25
1 -32 6 -37 27 -3 14 -12 43 -19 65 -22 58 -10 70 96 96 104 26 134 47 124 88
-9 37 -34 62 -59 61 -12 -1 -59 -14 -106 -30z m-36 -385 c3 -8 2 -12 -4 -9 -6
3 -10 10 -10 16 0 14 7 11 14 -7z m22 -38 c8 -8 13 -28 12 -44 -2 -22 -6 -28
-20 -24 -23 6 -46 32 -28 32 7 0 10 7 6 16 -6 15 0 34 10 34 3 0 12 -7 20 -14z
m14 -150 c0 -2 -7 -7 -16 -10 -8 -3 -12 -2 -9 4 6 10 25 14 25 6z m90 -130 c0
-3 -4 -8 -10 -11 -5 -3 -10 -1 -10 4 0 6 5 11 10 11 6 0 10 -2 10 -4z m-75
-26 c3 -5 1 -10 -4 -10 -6 0 -11 5 -11 10 0 6 2 10 4 10 3 0 8 -4 11 -10z"/>
<path d="M5830 2907 c0 -15 29 -57 30 -42 0 6 -3 20 -6 33 -7 24 -24 31 -24 9z"/>
<path d="M11575 2909 c-10 -15 3 -25 16 -12 7 7 7 13 1 17 -6 3 -14 1 -17 -5z"/>
<path d="M12230 2907 c0 -15 29 -57 30 -42 0 6 -3 20 -6 33 -7 24 -24 31 -24
9z"/>
<path d="M1990 2890 c0 -5 5 -10 11 -10 5 0 7 5 4 10 -3 6 -8 10 -11 10 -2 0
-4 -4 -4 -10z"/>
<path d="M2066 2893 c5 -5 12 -12 16 -18 4 -6 8 -2 8 8 0 9 -7 17 -17 17 -9 0
-12 -3 -7 -7z"/>
<path d="M8390 2890 c0 -5 5 -10 11 -10 5 0 7 5 4 10 -3 6 -8 10 -11 10 -2 0
-4 -4 -4 -10z"/>
<path d="M8466 2893 c5 -5 12 -12 16 -18 4 -6 8 -2 8 8 0 9 -7 17 -17 17 -9 0
-12 -3 -7 -7z"/>
<path d="M11653 2893 c-7 -2 -13 -17 -12 -31 0 -15 3 -21 6 -14 2 6 9 10 14 7
5 -4 6 2 2 11 -4 12 -3 15 5 10 7 -4 12 -1 12 8 0 16 -6 18 -27 9z"/>
<path d="M5730 2870 c0 -5 5 -10 10 -10 6 0 10 5 10 10 0 6 -4 10 -10 10 -5 0
-10 -4 -10 -10z"/>
<path d="M12130 2870 c0 -5 5 -10 10 -10 6 0 10 5 10 10 0 6 -4 10 -10 10 -5
0 -10 -4 -10 -10z"/>
<path d="M1700 2820 c0 -5 5 -10 10 -10 6 0 10 5 10 10 0 6 -4 10 -10 10 -5 0
-10 -4 -10 -10z"/>
<path d="M5170 2822 c0 -7 -12 -26 -27 -42 -28 -32 -38 -60 -22 -60 5 0 9 4 9
9 0 5 10 7 22 3 l22 -5 -22 -15 c-25 -16 -30 -34 -7 -26 8 4 15 1 15 -6 0 -9
4 -9 13 -2 15 13 29 5 45 -23 10 -18 11 -18 12 -2 0 10 4 16 9 13 16 -10 -11
63 -31 84 -11 11 -16 25 -13 30 3 6 -1 20 -9 32 -9 12 -16 17 -16 10z"/>
<path d="M8100 2820 c0 -5 5 -10 10 -10 6 0 10 5 10 10 0 6 -4 10 -10 10 -5 0
-10 -4 -10 -10z"/>
<path d="M4135 2810 c-41 -16 -48 -34 -35 -92 6 -29 10 -80 8 -113 -3 -51 -6
-60 -22 -60 -14 0 -32 26 -68 95 -27 52 -51 96 -53 98 -10 11 -79 2 -100 -12
-30 -20 -31 -39 -4 -77 11 -17 60 -109 109 -207 48 -97 108 -211 134 -252 25
-41 46 -80 46 -87 0 -25 43 -36 89 -23 44 12 63 36 40 51 -10 6 -10 9 -1 9 6
0 12 7 12 15 0 8 -4 15 -10 15 -5 0 -10 -4 -10 -10 0 -5 -5 -10 -12 -10 -7 0
-5 7 5 18 17 19 14 84 -5 108 -5 8 -3 14 8 18 12 5 14 10 5 19 -6 8 -13 49
-16 93 -3 43 -10 111 -15 149 -5 39 -11 110 -14 158 -3 49 -8 92 -11 98 -7 11
-52 11 -80 -1z"/>
<path d="M11591 2794 c0 -11 3 -14 6 -6 3 7 2 16 -1 19 -3 4 -6 -2 -5 -13z"/>
<path d="M5381 2783 c-1 -12 4 -25 9 -28 12 -7 12 2 0 30 -8 19 -9 19 -9 -2z"/>
<path d="M5750 2790 c0 -5 5 -10 10 -10 6 0 10 5 10 10 0 6 -4 10 -10 10 -5 0
-10 -4 -10 -10z"/>
<path d="M12150 2790 c0 -5 5 -10 10 -10 6 0 10 5 10 10 0 6 -4 10 -10 10 -5
0 -10 -4 -10 -10z"/>
<path d="M10363 2755 c-37 -16 -42 -39 -19 -83 62 -122 37 -200 -41 -129 -19
18 -39 41 -45 52 -43 92 -63 115 -100 115 -35 0 -88 -26 -88 -43 -1 -28 164
-653 175 -666 15 -15 82 -7 111 13 17 13 16 19 -9 117 -15 57 -27 110 -27 117
0 23 53 10 66 -17 7 -13 16 -26 22 -30 5 -3 28 -34 51 -69 26 -37 52 -64 66
-68 31 -8 91 12 99 32 3 9 -7 48 -22 87 -16 40 -39 113 -51 162 -13 50 -27 99
-32 110 -11 28 -26 90 -34 150 -4 28 -12 56 -18 63 -6 7 -11 32 -11 55 -1 39
-3 42 -31 44 -16 2 -45 -4 -62 -12z m112 -377 c1 -25 -4 -38 -12 -38 -7 0 -13
-9 -13 -20 0 -11 -4 -20 -10 -20 -5 0 -8 26 -7 60 2 54 4 60 22 58 16 -2 20
-11 20 -40z m25 -87 c0 -5 -7 -12 -16 -15 -9 -3 -14 -13 -10 -21 3 -8 1 -17
-4 -20 -5 -3 -12 4 -15 16 -5 14 -1 25 12 34 21 17 33 19 33 6z"/>
<path d="M11601 2750 c0 -8 8 -32 17 -52 17 -35 19 -36 30 -18 7 11 8 20 3 20
-5 0 -18 15 -30 33 -11 17 -21 25 -20 17z"/>
<path d="M5776 2708 c3 -13 10 -30 15 -38 7 -13 8 -13 9 0 0 27 -12 60 -22 60
-5 0 -6 -10 -2 -22z"/>
<path d="M12176 2708 c3 -13 10 -30 15 -38 7 -13 8 -13 9 0 0 27 -12 60 -22
60 -5 0 -6 -10 -2 -22z"/>
<path d="M5885 2690 c-3 -5 -3 -14 0 -20 4 -6 -5 -10 -19 -10 -28 0 -35 -17
-11 -26 11 -5 13 -10 5 -19 -12 -15 11 -28 34 -19 8 3 17 1 20 -4 3 -5 0 -10
-7 -9 -51 2 -56 -2 -46 -35 5 -17 14 -35 21 -40 9 -5 10 -8 1 -8 -22 0 30
-137 55 -143 13 -4 11 -5 -4 -6 l-21 -1 19 -67 c11 -38 29 -108 41 -158 13
-49 28 -90 34 -90 6 0 15 -3 19 -7 4 -5 2 -8 -4 -8 -7 0 -12 -11 -12 -25 0
-28 9 -24 -225 -84 -405 -103 -1033 -276 -1029 -283 3 -4 2 -13 -2 -20 -5 -8
-11 -6 -19 5 -9 13 -18 14 -41 7 -16 -5 -227 -62 -469 -126 -242 -64 -496
-132 -565 -151 -69 -19 -159 -43 -200 -53 -41 -10 -185 -49 -320 -85 -324 -87
-468 -125 -475 -125 -3 0 -4 -3 -2 -7 3 -5 -6 -9 -19 -9 -47 -3 -94 -15 -94
-24 0 -13 30 -40 45 -40 18 0 32 23 17 28 -21 7 -13 20 8 15 11 -3 20 -10 20
-17 0 -6 5 -4 11 4 8 12 10 9 6 -12 -2 -16 0 -28 4 -28 5 0 9 9 9 20 0 11 5
20 10 20 6 0 10 -7 10 -15 0 -16 41 -12 90 8 14 6 35 12 47 13 28 4 255 64
268 72 5 3 18 7 28 7 10 1 22 8 27 15 4 7 9 8 11 3 3 -9 233 50 734 186 302
83 607 164 664 178 77 19 147 48 133 57 -6 3 -18 3 -27 -1 -15 -5 -16 -3 -8
11 13 24 109 32 117 10 4 -10 14 -13 33 -8 61 13 339 87 348 92 5 3 18 7 30 8
11 2 173 44 360 94 187 51 349 94 360 97 11 3 40 11 65 18 25 7 57 16 71 19
19 4 25 12 25 28 -1 17 4 22 19 21 19 -3 18 -2 -2 8 -21 11 -33 33 -39 75 -2
17 1 21 17 17 22 -6 23 -1 9 47 -7 26 -16 36 -31 37 -12 1 -23 4 -26 6 -8 8 9
57 18 51 13 -8 11 19 -5 68 -8 24 -26 90 -40 148 -14 58 -37 143 -52 190 -14
47 -26 91 -27 98 0 14 -13 16 -22 2z m25 -48 c0 -13 -12 -22 -22 -16 -10 6 -1
24 13 24 5 0 9 -4 9 -8z m107 -434 c-3 -8 -6 -5 -6 6 -1 11 2 17 5 13 3 -3 4
-12 1 -19z m-1150 -564 c-3 -3 -12 -4 -19 -1 -8 3 -5 6 6 6 11 1 17 -2 13 -5z
m-2082 -604 c3 -6 -1 -7 -9 -4 -18 7 -21 14 -7 14 6 0 13 -4 16 -10z"/>
<path d="M11715 2690 c3 -5 10 -10 16 -10 5 0 9 5 9 10 0 6 -7 10 -16 10 -8 0
-12 -4 -9 -10z"/>
<path d="M12285 2690 c-3 -5 -3 -14 0 -20 4 -6 -5 -10 -19 -10 -28 0 -35 -17
-11 -26 11 -5 13 -10 5 -19 -12 -15 11 -28 34 -19 8 3 17 1 20 -4 3 -5 0 -10
-7 -9 -51 2 -56 -2 -46 -35 5 -17 14 -35 21 -40 9 -5 10 -8 1 -8 -22 0 30
-137 55 -143 13 -4 11 -5 -4 -6 l-21 -1 19 -67 c11 -38 29 -108 41 -158 13
-49 28 -90 34 -90 6 0 15 -3 19 -7 4 -5 2 -8 -4 -8 -7 0 -12 -11 -12 -25 0
-28 9 -24 -225 -84 -405 -103 -1033 -276 -1029 -283 3 -4 2 -13 -2 -20 -5 -8
-11 -6 -19 5 -9 13 -18 14 -41 7 -16 -5 -227 -62 -469 -126 -242 -64 -496
-132 -565 -151 -69 -19 -159 -43 -200 -53 -41 -10 -185 -49 -320 -85 -324 -87
-468 -125 -475 -125 -3 0 -4 -3 -2 -7 3 -5 -6 -9 -19 -9 -47 -3 -94 -15 -94
-24 0 -13 30 -40 45 -40 18 0 32 23 17 28 -21 7 -13 20 8 15 11 -3 20 -10 20
-17 0 -6 5 -4 11 4 8 12 10 9 6 -12 -2 -16 0 -28 4 -28 5 0 9 9 9 20 0 11 5
20 10 20 6 0 10 -7 10 -15 0 -16 41 -12 90 8 14 6 35 12 47 13 28 4 255 64
268 72 5 3 18 7 28 7 10 1 22 8 27 15 4 7 9 8 11 3 3 -9 233 50 734 186 302
83 607 164 664 178 77 19 147 48 133 57 -6 3 -18 3 -27 -1 -15 -5 -16 -3 -8
11 13 24 109 32 117 10 4 -10 14 -13 33 -8 61 13 339 87 348 92 5 3 18 7 30 8
11 2 173 44 360 94 187 51 349 94 360 97 11 3 40 11 65 18 25 7 57 16 71 19
19 4 25 12 25 28 -1 17 4 22 19 21 19 -3 18 -2 -2 8 -21 11 -33 33 -39 75 -2
17 1 21 17 17 22 -6 23 -1 9 47 -7 26 -16 36 -31 37 -12 1 -23 4 -26 6 -8 8 9
57 18 51 13 -8 11 19 -5 68 -8 24 -26 90 -40 148 -14 58 -37 143 -52 190 -14
47 -26 91 -27 98 0 14 -13 16 -22 2z m25 -48 c0 -13 -12 -22 -22 -16 -10 6 -1
24 13 24 5 0 9 -4 9 -8z m107 -434 c-3 -8 -6 -5 -6 6 -1 11 2 17 5 13 3 -3 4
-12 1 -19z m-1150 -564 c-3 -3 -12 -4 -19 -1 -8 3 -5 6 6 6 11 1 17 -2 13 -5z
m-2082 -604 c3 -6 -1 -7 -9 -4 -18 7 -21 14 -7 14 6 0 13 -4 16 -10z"/>
<path d="M1550 2660 c-12 -8 -11 -10 7 -10 12 0 25 5 28 10 8 13 -15 13 -35 0z"/>
<path d="M4750 2658 c-11 -4 -25 -19 -30 -34 -7 -18 -15 -24 -26 -20 -12 5
-15 -1 -12 -27 2 -17 8 -31 13 -29 6 2 9 10 7 18 -2 8 5 14 18 14 11 0 20 -4
20 -10 0 -5 -5 -10 -11 -10 -5 0 -7 -5 -4 -10 7 -11 67 -4 98 12 21 11 22 56
2 85 -15 22 -37 25 -75 11z m60 -18 c0 -5 -5 -10 -11 -10 -5 0 -7 5 -4 10 3 6
8 10 11 10 2 0 4 -4 4 -10z m-40 -15 c0 -8 -6 -15 -12 -15 -8 -1 -6 -6 4 -14
10 -7 15 -16 11 -19 -12 -13 -21 -7 -31 22 -8 22 -7 31 1 35 21 8 27 6 27 -9z
m60 -25 c0 -5 -2 -10 -4 -10 -3 0 -8 5 -11 10 -3 6 -1 10 4 10 6 0 11 -4 11
-10z"/>
<path d="M7950 2660 c-12 -8 -11 -10 7 -10 12 0 25 5 28 10 8 13 -15 13 -35 0z"/>
<path d="M11660 2650 c-9 -6 -10 -10 -3 -10 6 0 15 5 18 10 8 12 4 12 -15 0z"/>
<path d="M1490 2640 c-8 -5 -10 -10 -5 -10 6 0 17 5 25 10 8 5 11 10 5 10 -5
0 -17 -5 -25 -10z"/>
<path d="M5170 2638 c0 -8 6 -23 14 -33 14 -19 15 -19 37 0 20 17 22 18 16 3
-4 -12 -1 -18 8 -18 8 0 15 9 15 19 0 19 -14 22 -37 8 -14 -9 -45 2 -38 13 3
5 1 11 -5 15 -5 3 -10 0 -10 -7z"/>
<path d="M7890 2640 c-8 -5 -10 -10 -5 -10 6 0 17 5 25 10 8 5 11 10 5 10 -5
0 -17 -5 -25 -10z"/>
<path d="M4695 2630 c3 -5 8 -10 11 -10 2 0 4 5 4 10 0 6 -5 10 -11 10 -5 0
-7 -4 -4 -10z"/>
<path d="M3445 2626 c-5 -3 -22 -7 -37 -10 -36 -8 -88 -53 -88 -77 0 -10 -4
-19 -10 -19 -15 0 -12 -108 5 -164 8 -26 12 -52 10 -57 -3 -4 4 -23 15 -41 11
-18 20 -40 20 -49 0 -9 6 -29 14 -44 8 -15 12 -34 9 -42 -3 -7 2 -22 12 -33
10 -11 15 -26 12 -34 -4 -9 0 -28 8 -43 8 -15 15 -33 15 -40 0 -18 19 -26 33
-14 8 6 18 6 27 1 12 -8 10 -10 -7 -10 -60 0 12 -46 76 -49 44 -2 97 16 113
37 7 10 25 25 40 35 15 9 35 32 44 49 15 30 16 37 1 98 -9 36 -21 92 -27 125
-7 33 -25 107 -41 165 -53 185 -75 213 -172 217 -34 1 -66 1 -72 -1z m50 -102
c28 -7 48 -57 96 -234 44 -165 60 -247 52 -267 -3 -6 -18 -15 -35 -18 -16 -4
-32 -13 -35 -21 -4 -12 -8 -11 -20 6 -8 11 -18 18 -22 16 -3 -3 -14 23 -23 57
-44 172 -59 234 -62 257 -2 14 -11 45 -20 69 -36 97 -6 156 69 135z"/>
<path d="M11650 2611 c0 -11 9 -23 21 -26 18 -6 20 -13 16 -41 -6 -37 -2 -41
27 -19 17 13 18 15 3 15 -14 0 -16 7 -12 36 4 34 3 36 -20 30 -19 -5 -23 -3
-19 9 4 8 1 15 -5 15 -6 0 -11 -9 -11 -19z"/>
<path d="M1190 2569 c-102 -26 -293 -77 -425 -113 -132 -36 -247 -68 -255 -70
-34 -9 -68 -25 -74 -34 -3 -6 5 -48 19 -93 14 -46 39 -138 56 -204 17 -66 33
-127 36 -135 3 -8 7 -19 8 -25 4 -29 18 -65 25 -65 4 0 4 15 0 33 -8 32 -74
280 -111 412 -10 38 -15 73 -11 77 4 4 36 14 72 23 36 8 81 20 100 25 19 5
123 33 230 62 107 28 224 59 260 69 36 10 117 32 179 49 63 17 117 33 120 35
11 12 -56 -2 -229 -46z"/>
<path d="M7590 2569 c-102 -26 -293 -77 -425 -113 -132 -36 -247 -68 -255 -70
-34 -9 -68 -25 -74 -34 -3 -6 5 -48 19 -93 14 -46 39 -138 56 -204 17 -66 33
-127 36 -135 3 -8 7 -19 8 -25 4 -29 18 -65 25 -65 4 0 4 15 0 33 -8 32 -74
280 -111 412 -10 38 -15 73 -11 77 4 4 36 14 72 23 36 8 81 20 100 25 19 5
123 33 230 62 107 28 224 59 260 69 36 10 117 32 179 49 63 17 117 33 120 35
11 12 -56 -2 -229 -46z"/>
<path d="M4620 2601 c0 -9 24 -21 42 -21 6 0 6 6 -2 15 -14 16 -40 20 -40 6z"/>
<path d="M5800 2610 c0 -3 12 -48 26 -100 14 -52 32 -122 40 -155 8 -33 17
-67 21 -75 3 -8 8 -26 10 -40 2 -13 7 -27 11 -30 4 -3 8 -16 10 -30 2 -14 10
-50 18 -81 20 -81 19 -86 -28 -102 -37 -13 -39 -16 -16 -16 15 -1 38 3 52 9
31 11 35 50 12 105 -8 19 -12 35 -8 35 3 0 1 5 -6 12 -7 7 -12 22 -12 34 0 19
-34 149 -76 294 -9 30 -19 68 -21 85 -3 16 -11 37 -19 45 -8 8 -14 12 -14 10z"/>
<path d="M9758 2603 c-14 -2 -32 -11 -39 -19 -15 -18 -14 -75 2 -84 6 -4 11
-21 11 -36 0 -16 7 -38 14 -49 8 -11 14 -34 14 -52 0 -18 5 -33 10 -33 6 0 10
-6 10 -14 0 -7 8 -31 17 -52 9 -22 16 -43 15 -47 -1 -4 5 -36 14 -70 9 -34 20
-84 24 -112 27 -157 37 -174 92 -150 58 23 58 41 2 49 -25 4 -29 23 -6 30 11
4 25 20 32 36 11 26 9 32 -15 64 -20 27 -26 45 -25 83 1 69 -3 93 -22 133 -10
19 -22 57 -28 85 -6 27 -16 55 -22 62 -5 7 -8 24 -4 37 3 13 -1 36 -9 52 -8
16 -15 44 -15 62 0 34 -4 35 -72 25z"/>
<path d="M11020 2601 c0 -9 24 -21 42 -21 6 0 6 6 -2 15 -14 16 -40 20 -40 6z"/>
<path d="M11081 2583 c-1 -18 4 -33 9 -33 12 0 12 17 0 45 -7 17 -9 15 -9 -12z"/>
<path d="M12200 2610 c0 -3 12 -48 26 -100 14 -52 32 -122 40 -155 8 -33 17
-67 21 -75 3 -8 8 -26 10 -40 2 -13 7 -27 11 -30 4 -3 8 -16 10 -30 2 -14 10
-50 18 -81 20 -81 19 -86 -28 -102 -37 -13 -39 -16 -16 -16 15 -1 38 3 52 9
31 11 35 50 12 105 -8 19 -12 35 -8 35 3 0 1 5 -6 12 -7 7 -12 22 -12 34 0 19
-34 149 -76 294 -9 30 -19 68 -21 85 -3 16 -11 37 -19 45 -8 8 -14 12 -14 10z"/>
<path d="M11415 2579 c-4 -6 -5 -12 -2 -15 2 -3 7 2 10 11 7 17 1 20 -8 4z"/>
<path d="M5500 2569 c0 -6 -8 -9 -19 -6 -10 2 -26 0 -35 -5 -14 -8 -15 -12 -5
-24 10 -12 8 -16 -10 -21 -17 -4 -19 -8 -9 -14 10 -7 9 -9 -4 -9 -21 0 -24
-16 -5 -23 6 -2 17 3 24 12 11 14 12 14 13 -3 0 -12 5 -16 15 -12 8 3 15 3 15
0 0 -8 -32 -39 -41 -39 -4 0 -11 -3 -15 -7 -4 -5 1 -8 11 -8 20 0 58 38 80 81
17 31 10 40 -10 13 -11 -16 -12 -16 -18 0 -5 12 3 20 26 31 26 12 27 14 7 11
-23 -5 -23 -4 -7 8 15 12 16 14 2 20 -8 3 -15 0 -15 -5z"/>
<path d="M11753 2563 c-7 -3 -12 -19 -12 -36 1 -18 3 -24 6 -14 2 9 9 17 14
17 6 0 8 4 5 9 -4 5 -1 11 6 13 7 3 8 7 3 10 -6 3 -16 3 -22 1z"/>
<path d="M5184 2518 c4 -24 11 -65 15 -93 8 -61 17 -77 39 -71 10 3 34 8 54
10 56 7 119 28 116 38 -2 5 -6 8 -8 7 -11 -6 -50 23 -50 36 0 8 -4 15 -10 15
-5 0 -10 -5 -10 -11 0 -5 -4 -7 -10 -4 -5 3 -10 15 -10 26 0 11 -4 17 -10 14
-5 -3 -10 0 -11 7 0 7 -4 4 -8 -7 -7 -18 -9 -18 -34 9 -15 16 -25 31 -23 35 5
8 -15 25 -33 29 -11 2 -12 -7 -7 -40z m160 -117 c3 -5 -1 -11 -9 -14 -9 -4
-12 -1 -8 9 6 16 10 17 17 5z"/>
<path d="M11438 2543 c6 -3 12 -11 12 -19 0 -9 -4 -13 -8 -10 -5 3 -5 -18 -1
-46 5 -28 14 -55 21 -60 10 -6 10 -8 1 -8 -17 0 -17 -41 0 -64 12 -16 19 -16
77 -6 183 32 253 91 192 162 -10 12 -19 15 -27 8 -6 -5 -15 -7 -18 -3 -4 3 -7
-1 -7 -10 0 -10 -6 -14 -14 -11 -8 3 -16 -4 -19 -17 -5 -18 -9 -20 -21 -10
-11 10 -17 8 -29 -9 l-14 -21 -6 21 c-3 13 -11 18 -20 14 -16 -6 -33 28 -23
44 12 19 -21 42 -64 46 -25 2 -39 2 -32 -1z m79 -70 c10 -21 10 -28 1 -34 -14
-9 -32 16 -23 31 3 6 1 10 -5 10 -6 0 -8 5 -5 10 10 16 19 11 32 -17z m213 -9
c0 -14 -4 -23 -10 -19 -5 3 -10 15 -10 26 0 10 5 19 10 19 6 0 10 -12 10 -26z"/>
<path d="M4669 2495 c-5 -34 -29 -44 -52 -20 -17 17 -33 4 -21 -17 4 -7 -2 -5
-14 6 -12 10 -19 22 -17 27 3 4 0 11 -6 15 -9 5 -10 0 -5 -17 4 -13 8 -31 11
-39 12 -51 73 -242 78 -247 8 -7 128 16 142 27 6 5 48 14 95 20 47 7 91 17 98
22 21 18 14 72 -12 97 -22 21 -28 22 -60 11 -20 -6 -38 -15 -41 -20 -3 -5 -12
-7 -19 -4 -8 3 -17 1 -21 -5 -3 -6 -15 -11 -25 -11 -10 0 -23 -7 -28 -16 -8
-14 -13 -14 -33 -4 -35 19 -43 36 -55 125 -7 54 -12 70 -15 50z m-34 -45 c6
-10 -22 -46 -30 -38 -7 6 7 48 16 48 4 0 11 -5 14 -10z"/>
<path d="M4647 2503 c-10 -9 -9 -23 1 -23 5 0 9 7 9 15 0 17 -1 18 -10 8z"/>
<path d="M9193 2450 l-42 -19 19 -73 c27 -107 78 -327 86 -373 4 -22 11 -49
17 -60 6 -11 10 -23 9 -27 -1 -3 7 -39 17 -80 20 -77 34 -90 75 -69 19 10 91
28 140 35 21 3 35 26 16 26 -6 0 -9 4 -5 9 3 6 18 3 34 -7 27 -15 30 -15 55 1
29 19 35 61 14 90 -12 15 -17 15 -76 0 -42 -12 -61 -22 -58 -30 6 -14 -10 -18
-18 -5 -3 5 -19 9 -37 10 -17 0 -32 2 -33 4 -1 2 -24 127 -50 278 -31 178 -53
281 -63 293 -20 21 -46 21 -100 -3z m356 -603 c0 -9 -2 -9 -5 0 -3 7 -13 9
-22 6 -14 -4 -14 -3 -2 5 16 12 30 7 29 -11z"/>
<path d="M2855 2449 c-22 -5 -56 -11 -75 -15 -61 -11 -110 -37 -116 -61 -4
-13 5 -52 19 -90 28 -74 107 -343 107 -364 0 -31 34 -100 47 -95 7 3 13 -1 13
-10 0 -8 -3 -13 -7 -11 -5 3 -9 -6 -10 -20 -2 -37 25 -63 67 -63 64 0 95 58
59 106 -13 16 -49 122 -58 172 -15 79 38 92 75 19 10 -18 28 -47 42 -65 14
-18 26 -40 27 -50 3 -27 32 -87 49 -101 9 -8 23 -10 33 -6 12 5 14 9 5 12 -6
3 -10 9 -6 14 3 5 14 3 26 -5 15 -11 26 -12 40 -5 31 16 22 60 -24 122 -24 31
-60 86 -82 123 -36 62 -37 70 -27 104 15 51 14 83 -7 162 -15 56 -24 72 -56
97 -21 17 -44 31 -50 32 -6 0 -20 2 -31 3 -11 2 -38 -1 -60 -5z m67 -117 c10
-8 21 -31 24 -51 4 -20 11 -42 16 -48 16 -20 -44 -73 -81 -73 -35 0 -58 28
-72 87 -11 49 -4 70 29 87 33 18 62 17 84 -2z m172 -458 c5 -12 2 -15 -10 -10
-8 3 -18 6 -20 6 -3 0 -2 5 1 10 9 15 22 12 29 -6z m55 -27 c0 -9 -2 -9 -5 0
-3 7 -13 9 -22 6 -14 -4 -14 -3 -2 5 16 12 30 7 29 -11z"/>
<path d="M8755 2316 c-22 -29 -38 -35 -28 -10 5 13 2 15 -18 9 -42 -13 -68
-34 -89 -74 -23 -46 -22 -122 4 -150 9 -10 15 -29 15 -42 -1 -13 6 -41 15 -62
9 -21 14 -43 10 -50 -5 -9 -4 -9 5 -1 7 6 13 27 14 47 1 21 5 37 10 37 4 0 5
-11 3 -25 -3 -13 0 -27 5 -31 6 -4 2 -15 -11 -29 -19 -20 -20 -24 -6 -38 9 -8
21 -17 27 -19 9 -3 8 -9 -1 -24 -9 -14 -10 -31 -5 -50 5 -16 7 -33 6 -38 -1
-5 6 -6 15 -2 14 5 15 4 5 -8 -10 -12 -9 -22 4 -50 52 -110 246 -112 308 -4
38 64 42 90 18 117 -17 20 -27 23 -58 18 -38 -6 -83 -45 -83 -71 0 -24 -33
-44 -57 -35 -23 8 -32 33 -78 216 -14 57 -34 122 -45 145 -25 55 -25 90 0 113
23 20 84 14 94 -10 12 -33 116 -6 116 30 0 50 -59 100 -130 110 -42 6 -48 4
-65 -19z m-5 -476 c0 -5 -2 -10 -4 -10 -3 0 -8 5 -11 10 -3 6 -1 10 4 10 6 0
11 -4 11 -10z m25 -10 c-4 -11 -2 -20 4 -20 6 0 11 -4 11 -10 0 -5 -7 -10 -16
-10 -9 0 -12 -5 -8 -12 5 -9 2 -9 -9 1 -21 17 -21 26 1 50 22 25 25 25 17 1z
m280 -59 c-9 -42 -27 -51 -20 -10 3 18 8 36 11 41 11 17 16 -1 9 -31z"/>
<path d="M2250 2300 c-19 -5 -64 -14 -99 -21 -82 -17 -91 -33 -68 -127 8 -37
24 -91 35 -121 17 -46 21 -51 30 -35 6 10 14 16 18 11 4 -4 -1 -16 -11 -27
-18 -20 -18 -20 12 -14 23 5 32 2 37 -11 3 -10 3 -21 0 -24 -4 -3 -9 0 -11 7
-3 6 -16 12 -30 12 -18 0 -23 -4 -19 -17 29 -104 76 -296 76 -315 0 -31 26
-68 48 -68 9 0 36 9 59 20 l42 19 -22 63 c-12 35 -25 64 -28 66 -3 1 -4 14 -1
29 4 23 3 25 -19 20 -13 -4 -28 -7 -32 -7 -5 0 -5 -5 -1 -12 5 -7 3 -8 -5 -4
-9 6 -8 13 5 27 9 10 20 16 25 14 12 -8 20 11 13 30 -4 10 -14 15 -25 12 -24
-6 -22 32 3 51 10 7 15 19 11 29 -5 13 -3 14 12 6 24 -14 82 0 106 26 11 12
23 21 28 21 14 0 51 77 51 106 0 16 -13 65 -28 108 -31 87 -59 117 -110 120
-17 1 -34 5 -38 9 -8 8 -16 8 -64 -3z m-90 -80 c0 -5 -5 -10 -11 -10 -5 0 -7
5 -4 10 3 6 8 10 11 10 2 0 4 -4 4 -10z m144 -30 c17 -6 28 -21 35 -47 17 -62
13 -88 -18 -122 -32 -34 -34 -40 -20 -57 5 -7 0 -19 -16 -34 -14 -13 -25 -18
-25 -12 0 6 4 13 9 16 5 3 11 17 14 32 3 20 0 27 -18 34 -30 11 -34 20 -51 93
-13 55 -13 63 1 73 8 6 15 16 15 23 0 13 40 14 74 1z m-59 -260 c3 -6 -1 -7
-9 -4 -18 7 -21 14 -7 14 6 0 13 -4 16 -10z"/>
<path d="M8225 2192 c-22 -9 -42 -18 -45 -21 -3 -4 -16 -7 -30 -9 -14 -1 -55
-12 -92 -23 -54 -16 -69 -24 -74 -43 -3 -15 11 -74 40 -157 52 -155 127 -393
146 -461 12 -44 14 -47 39 -41 14 3 27 9 29 13 1 4 14 5 28 2 14 -2 32 2 42
11 9 8 53 20 97 27 113 16 125 23 125 63 0 42 -31 73 -68 68 -29 -3 -82 -31
-82 -42 0 -3 -12 -4 -27 -1 -18 3 -30 -1 -39 -12 -11 -16 -15 -16 -42 -2 -35
18 -38 26 -47 118 l-7 66 33 18 c18 9 49 19 69 21 40 5 76 35 65 53 -6 9 -10
9 -16 -1 -6 -9 -9 1 -9 29 0 47 -6 50 -71 30 -28 -8 -39 -17 -40 -32 -2 -27
-2 -27 6 -51 6 -16 5 -17 -4 -5 -9 12 -12 13 -20 1 -7 -11 -9 -11 -14 0 -4 10
-6 10 -6 -2 -1 -19 -31 -48 -31 -30 0 6 5 11 10 11 6 0 10 5 10 11 0 5 -4 7
-10 4 -5 -3 -10 0 -10 7 0 8 12 19 28 26 l27 12 -27 -5 c-30 -6 -39 11 -10 18
13 3 11 6 -10 15 -16 7 -28 19 -28 29 0 10 -8 39 -17 66 -12 33 -14 50 -6 58
6 6 46 19 89 30 145 36 154 44 128 109 -15 37 -19 40 -53 39 -20 -1 -54 -8
-76 -17z m-135 -362 c0 -5 -5 -10 -11 -10 -5 0 -7 5 -4 10 3 6 8 10 11 10 2 0
4 -4 4 -10z m80 6 c0 -3 -4 -8 -10 -11 -5 -3 -10 -1 -10 4 0 6 5 11 10 11 6 0
10 -2 10 -4z m-40 -96 c0 -19 -18 -19 -23 -1 -3 14 -1 18 9 14 8 -3 14 -9 14
-13z m317 -146 c-3 -3 -12 -4 -19 -1 -8 3 -5 6 6 6 11 1 17 -2 13 -5z m-207
-22 c0 -5 -11 -15 -25 -22 -14 -7 -25 -17 -25 -22 0 -14 -18 -9 -24 8 -3 8 -2
12 4 9 5 -3 18 3 30 15 21 21 40 26 40 12z m150 -31 c0 -5 -7 -11 -15 -15 -15
-5 -20 5 -8 17 9 10 23 9 23 -2z m30 -25 c0 -3 -4 -8 -10 -11 -5 -3 -10 -1
-10 4 0 6 5 11 10 11 6 0 10 -2 10 -4z"/>
<path d="M6030 2150 c-12 -8 -10 -10 8 -10 13 0 20 4 17 10 -7 12 -6 12 -25 0z"/>
<path d="M12430 2150 c-12 -8 -10 -10 8 -10 13 0 20 4 17 10 -7 12 -6 12 -25
0z"/>
<path d="M1645 2139 c-22 -5 -67 -15 -100 -22 -50 -11 -62 -18 -74 -41 -12
-25 -11 -37 9 -100 12 -39 44 -154 71 -256 28 -102 52 -192 56 -200 3 -8 7
-28 8 -43 2 -16 11 -35 21 -43 11 -9 13 -13 7 -9 -7 3 -13 1 -13 -5 0 -6 11
-15 24 -21 19 -9 33 -7 70 10 l47 20 -17 33 c-10 18 -19 42 -20 53 -3 28 -34
147 -43 165 -4 8 -5 26 -1 40 5 21 14 26 55 32 35 5 57 15 79 37 17 17 25 31
18 31 -6 0 -12 -6 -12 -12 0 -9 -4 -8 -10 2 -8 12 -10 11 -10 -6 0 -12 -7 -24
-15 -28 -8 -3 -15 -1 -15 4 0 6 5 10 10 10 6 0 10 5 10 11 0 5 -4 7 -10 4 -5
-3 -10 0 -10 8 0 8 11 18 25 21 14 4 25 11 25 17 0 6 -6 6 -19 -1 -24 -12 -31
-13 -31 -1 0 5 10 11 21 14 14 4 20 11 16 21 -5 13 -3 14 14 3 12 -7 18 -19
15 -29 -8 -34 14 -29 29 5 14 35 10 107 -6 107 -5 0 -9 8 -9 18 0 14 -2 14 -9
3 -5 -8 -7 -19 -5 -26 3 -6 -2 -12 -11 -12 -9 0 -14 6 -11 14 3 7 1 13 -4 13
-6 0 -10 -6 -11 -12 0 -7 -4 -4 -9 7 -13 31 -12 35 11 32 34 -3 44 24 25 65
-27 56 -111 86 -191 67z m81 -127 c8 -9 14 -30 14 -47 0 -16 2 -39 5 -50 4
-14 -8 -34 -36 -65 -23 -25 -39 -37 -36 -27 5 12 1 17 -14 17 -11 0 -24 10
-30 24 -8 17 -17 22 -28 18 -15 -5 -15 -4 1 11 13 13 14 24 7 57 -7 32 -6 46
8 66 15 23 21 25 56 20 22 -4 46 -14 53 -24z m121 -88 c-3 -3 -12 -4 -19 -1
-8 3 -5 6 6 6 11 1 17 -2 13 -5z m-77 -88 c0 -3 -4 -8 -10 -11 -5 -3 -10 -1
-10 4 0 6 5 11 10 11 6 0 10 -2 10 -4z m-86 -381 c-22 -16 -36 -15 -42 5 -3 8
1 11 10 8 8 -4 21 -2 29 2 22 14 25 1 3 -15z"/>
<path d="M7610 2002 c-25 -1 -52 -5 -60 -9 -8 -3 -40 -8 -70 -10 -69 -6 -100
-24 -100 -61 0 -16 5 -33 11 -39 6 -6 17 -35 23 -64 10 -44 18 -55 44 -68 36
-18 40 -40 12 -66 -25 -23 -25 -32 0 -40 15 -5 19 -12 15 -28 -8 -30 31 -119
40 -94 4 9 18 17 30 17 54 0 54 3 25 114 -15 57 -32 112 -38 122 -6 11 -13 40
-17 65 -8 52 0 59 66 65 44 4 59 -14 79 -93 8 -29 19 -53 24 -53 7 0 7 -3 0
-8 -9 -5 -6 -24 7 -69 16 -49 24 -63 39 -63 11 0 20 -4 20 -10 0 -5 -7 -7 -15
-4 -8 4 -15 1 -15 -5 0 -6 14 -11 32 -11 25 0 29 3 20 12 -7 7 -12 16 -12 22
0 5 6 1 14 -9 11 -15 17 -17 28 -7 8 6 18 9 21 5 16 -15 5 35 -13 65 -17 28
-19 37 -8 49 10 12 9 17 -5 24 -10 6 -19 29 -23 60 -4 27 -11 52 -15 55 -5 3
-6 16 -3 30 13 51 -76 111 -156 106z m100 -91 c0 -5 -7 -11 -15 -15 -15 -5
-20 5 -8 17 9 10 23 9 23 -2z m40 -101 c0 -5 -4 -10 -10 -10 -5 0 -10 5 -10
10 0 6 5 10 10 10 6 0 10 -4 10 -10z"/>
<path d="M5525 1899 c-159 -44 -357 -97 -440 -119 -82 -22 -181 -49 -220 -60
-38 -11 -81 -23 -95 -26 -36 -8 -166 -42 -570 -151 -195 -52 -404 -108 -465
-124 -60 -16 -294 -78 -520 -139 -225 -61 -444 -120 -485 -130 -41 -11 -82
-23 -90 -26 -8 -4 -25 -8 -38 -10 -12 -1 -73 -16 -135 -33 -61 -17 -287 -78
-502 -135 -214 -58 -448 -121 -520 -141 -71 -20 -155 -43 -185 -51 -75 -20
-84 -24 -77 -30 3 -3 54 7 114 24 135 37 287 77 518 137 99 25 200 52 225 60
25 7 117 32 205 55 88 22 174 45 190 50 42 13 152 43 270 74 137 35 1950 519
2105 561 69 19 330 89 580 155 250 67 459 126 465 131 20 19 -48 4 -330 -72z"/>
<path d="M11925 1899 c-159 -44 -357 -97 -440 -119 -82 -22 -181 -49 -220 -60
-38 -11 -81 -23 -95 -26 -36 -8 -166 -42 -570 -151 -195 -52 -404 -108 -465
-124 -60 -16 -294 -78 -520 -139 -225 -61 -444 -120 -485 -130 -41 -11 -82
-23 -90 -26 -8 -4 -25 -8 -38 -10 -12 -1 -73 -16 -135 -33 -61 -17 -287 -78
-502 -135 -214 -58 -448 -121 -520 -141 -71 -20 -155 -43 -185 -51 -75 -20
-84 -24 -77 -30 3 -3 54 7 114 24 135 37 287 77 518 137 99 25 200 52 225 60
25 7 117 32 205 55 88 22 174 45 190 50 42 13 152 43 270 74 137 35 1950 519
2105 561 69 19 330 89 580 155 250 67 459 126 465 131 20 19 -48 4 -330 -72z"/>
<path d="M958 1942 c-47 -27 -48 -28 -46 -76 0 -28 7 -65 14 -83 16 -38 17
-46 5 -39 -10 7 -2 -45 11 -61 6 -7 4 -13 -4 -15 -10 -4 -10 -15 0 -57 7 -29
12 -63 12 -77 0 -22 10 -29 33 -25 5 1 5 -8 2 -20 -5 -14 -4 -19 4 -15 6 4 24
-1 41 -11 25 -14 35 -15 60 -6 31 12 36 8 21 -16 -5 -7 -14 -10 -20 -7 -15 10
-13 -15 3 -36 11 -16 15 -16 34 -2 15 10 34 13 57 10 18 -3 37 -1 40 4 7 11
45 -30 45 -48 0 -5 9 -21 21 -36 18 -23 26 -26 57 -20 83 15 88 33 30 121 -18
28 -40 64 -50 81 -12 22 -22 29 -36 25 -14 -3 -21 1 -25 16 -3 12 0 21 6 21 7
0 4 7 -5 14 -10 7 -18 24 -18 37 0 25 -146 286 -183 327 -27 29 -51 28 -109
-6z m147 -299 c9 -9 28 -35 42 -57 14 -23 27 -43 29 -45 2 -2 15 4 29 13 27
18 30 12 15 -28 -5 -14 -6 -25 -2 -23 4 1 9 -2 11 -8 3 -5 -3 -11 -12 -13 -10
-2 -17 3 -17 11 0 8 -7 18 -16 21 -12 4 -15 2 -11 -9 4 -8 2 -17 -3 -20 -6 -4
-10 -1 -10 5 0 6 -5 8 -11 4 -15 -9 -86 -12 -100 -4 -6 4 -11 11 -11 16 1 5
-5 8 -13 6 -7 -1 -17 3 -21 9 -5 9 -2 10 9 6 10 -3 17 -2 17 4 0 6 5 7 10 4 6
-4 10 5 10 20 0 14 -4 24 -9 21 -5 -3 -15 2 -22 12 -13 15 -12 16 3 4 15 -12
18 -10 23 15 11 48 14 53 29 53 8 0 22 -7 31 -17z m145 -107 c0 -3 -4 -8 -10
-11 -5 -3 -10 -1 -10 4 0 6 5 11 10 11 6 0 10 -2 10 -4z m40 -36 c0 -5 -5 -10
-11 -10 -5 0 -7 5 -4 10 3 6 8 10 11 10 2 0 4 -4 4 -10z m-23 -92 c-3 -8 -6
-5 -6 6 -1 11 2 17 5 13 3 -3 4 -12 1 -19z m-147 2 c0 -5 -4 -10 -9 -10 -6 0
-13 5 -16 10 -3 6 1 10 9 10 9 0 16 -4 16 -10z"/>
<path d="M581 1804 c0 -11 3 -14 6 -6 3 7 2 16 -1 19 -3 4 -6 -2 -5 -13z"/>
<path d="M6981 1804 c0 -11 3 -14 6 -6 3 7 2 16 -1 19 -3 4 -6 -2 -5 -13z"/>
<path d="M503 1776 c-7 -8 -17 -16 -24 -18 -9 -3 -9 -9 -1 -24 8 -13 11 -14
12 -4 0 10 3 11 11 3 8 -8 18 -8 35 -1 28 13 30 21 8 42 -19 19 -25 19 -41 2z"/>
<path d="M6903 1776 c-7 -8 -17 -16 -24 -18 -9 -3 -9 -9 -1 -24 8 -13 11 -14
12 -4 0 10 3 11 11 3 8 -8 18 -8 35 -1 28 13 30 21 8 42 -19 19 -25 19 -41 2z"/>
<path d="M591 1764 c0 -11 3 -14 6 -6 3 7 2 16 -1 19 -3 4 -6 -2 -5 -13z"/>
<path d="M6991 1764 c0 -11 3 -14 6 -6 3 7 2 16 -1 19 -3 4 -6 -2 -5 -13z"/>
<path d="M539 1713 c-1 -4 -1 -16 0 -25 1 -10 -3 -18 -9 -18 -7 0 -9 -7 -6
-16 3 -8 2 -12 -4 -9 -6 3 -10 -1 -10 -9 0 -9 6 -16 14 -16 10 0 12 -11 9 -42
-4 -42 17 -130 30 -129 4 1 13 1 21 1 8 0 16 7 19 14 4 11 1 13 -11 9 -14 -6
-15 -5 -2 9 8 9 20 13 25 10 6 -3 3 3 -5 13 -12 15 -12 17 -1 10 11 -6 13 -4
8 9 -4 10 -7 24 -7 31 0 8 -10 23 -22 35 -12 11 -16 20 -10 20 7 0 12 5 12 11
0 5 -3 8 -8 5 -4 -2 -15 2 -26 9 -20 15 -14 35 10 35 8 0 12 5 9 10 -4 6 -11
8 -16 5 -5 -3 -6 0 -3 8 3 8 1 18 -5 22 -6 3 -12 3 -12 -2z"/>
<path d="M6939 1713 c-1 -4 -1 -16 0 -25 1 -10 -3 -18 -9 -18 -7 0 -9 -7 -6
-16 3 -8 2 -12 -4 -9 -6 3 -10 -1 -10 -9 0 -9 6 -16 14 -16 10 0 12 -11 9 -42
-4 -42 17 -130 30 -129 4 1 13 1 21 1 8 0 16 7 19 14 4 11 1 13 -11 9 -14 -6
-15 -5 -2 9 8 9 20 13 25 10 6 -3 3 3 -5 13 -12 15 -12 17 -1 10 11 -6 13 -4
8 9 -4 10 -7 24 -7 31 0 8 -10 23 -22 35 -12 11 -16 20 -10 20 7 0 12 5 12 11
0 5 -3 8 -8 5 -4 -2 -15 2 -26 9 -20 15 -14 35 10 35 8 0 12 5 9 10 -4 6 -11
8 -16 5 -5 -3 -6 0 -3 8 3 8 1 18 -5 22 -6 3 -12 3 -12 -2z"/>
<path d="M614 1673 c3 -10 19 -67 36 -127 28 -101 40 -134 40 -109 0 5 -4 23
-9 39 -5 16 -14 54 -21 84 -7 30 -15 60 -19 65 -6 10 -7 16 -9 48 -1 9 -7 17
-13 17 -6 0 -8 -8 -5 -17z"/>
<path d="M7014 1673 c3 -10 19 -67 36 -127 28 -101 40 -134 40 -109 0 5 -4 23
-9 39 -5 16 -14 54 -21 84 -7 30 -15 60 -19 65 -6 10 -7 16 -9 48 -1 9 -7 17
-13 17 -6 0 -8 -8 -5 -17z"/>
<path d="M7782 1569 c-25 -27 -28 -36 -22 -65 5 -23 3 -39 -7 -53 -10 -15 -11
-21 -2 -21 8 0 8 -4 -1 -15 -7 -9 -20 -13 -29 -10 -9 4 -22 -3 -33 -17 -14
-18 -18 -20 -18 -6 0 9 -9 20 -20 23 -15 5 -20 15 -20 41 0 24 -5 34 -15 34
-8 0 -15 6 -15 13 0 19 -37 39 -46 25 -4 -6 -3 -8 3 -5 6 4 14 0 17 -9 4 -11
2 -15 -7 -11 -17 6 -52 -19 -37 -28 5 -3 8 -11 4 -16 -3 -6 -3 -22 0 -35 5
-19 11 -24 24 -19 14 5 15 4 5 -6 -29 -29 -8 -125 25 -115 9 3 35 8 58 11 55
7 154 41 177 63 10 9 30 38 43 64 21 42 22 50 11 77 -7 17 -16 28 -20 24 -4
-3 -7 -1 -7 5 0 7 4 12 10 12 12 0 -7 52 -23 62 -19 12 -24 10 -55 -23z m-142
-179 c0 -5 -2 -10 -4 -10 -3 0 -8 5 -11 10 -3 6 -1 10 4 10 6 0 11 -4 11 -10z
m-26 -44 c-3 -14 -10 -26 -16 -26 -5 0 -6 5 -3 10 3 6 -4 10 -17 11 -21 1 -21
1 5 11 15 5 27 15 27 21 0 5 2 8 5 5 4 -3 3 -17 -1 -32z m56 -6 c0 -5 -2 -10
-4 -10 -3 0 -8 5 -11 10 -3 6 -1 10 4 10 6 0 11 -4 11 -10z"/>
<path d="M576 1377 c3 -10 9 -15 12 -12 3 3 0 11 -7 18 -10 9 -11 8 -5 -6z"/>
<path d="M6976 1377 c3 -10 9 -15 12 -12 3 3 0 11 -7 18 -10 9 -11 8 -5 -6z"/>
<path d="M627 1373 c-9 -2 -15 -9 -12 -14 4 -5 -3 -9 -14 -9 -21 0 -29 -16
-11 -22 5 -1 11 -23 13 -47 2 -25 9 -47 15 -49 7 -2 12 -21 12 -42 0 -24 5
-40 15 -44 8 -3 15 -10 15 -16 0 -6 -4 -8 -10 -5 -5 3 -7 0 -4 -8 3 -8 15 -20
27 -26 21 -11 21 -11 -3 -5 -20 5 -23 4 -12 -7 6 -7 12 -25 12 -39 0 -24 21
-110 37 -150 3 -8 7 -24 8 -34 1 -11 7 -22 13 -24 6 -2 8 -10 5 -19 -4 -11 -2
-14 5 -9 22 14 34 -5 16 -25 -14 -16 -15 -25 -6 -57 6 -20 16 -57 22 -82 12
-43 13 -44 22 -20 l9 25 19 -25 c10 -13 16 -28 14 -32 -6 -9 15 -22 41 -25 16
-3 15 1 -9 20 -19 15 -25 26 -18 31 12 7 10 23 -18 121 -11 38 -26 93 -33 120
-13 44 -17 50 -38 46 l-24 -3 25 20 c20 17 23 23 13 33 -7 7 -13 23 -13 35 0
13 -6 29 -14 37 -9 8 -12 24 -9 36 6 24 -21 61 -44 61 -19 0 -16 17 4 29 16 8
16 14 5 53 -8 24 -16 55 -19 70 -3 15 -9 26 -13 23 -5 -3 -6 4 -3 15 3 11 0
27 -7 35 -6 8 -9 19 -5 25 6 10 2 11 -28 3z m93 -283 c0 -5 -4 -10 -10 -10 -5
0 -10 5 -10 10 0 6 5 10 10 10 6 0 10 -4 10 -10z m7 -85 c0 -8 -4 -12 -9 -9
-4 3 -8 9 -8 15 0 5 4 9 8 9 5 0 9 -7 9 -15z m43 -129 c0 -3 -4 -8 -10 -11 -5
-3 -10 -1 -10 4 0 6 5 11 10 11 6 0 10 -2 10 -4z"/>
<path d="M701 1369 c-1 -14 31 -139 74 -294 9 -33 34 -132 57 -219 22 -88 44
-170 49 -183 9 -25 43 -31 69 -12 12 8 9 10 -13 6 -15 -2 -29 -1 -32 3 -5 9
-107 376 -146 525 -30 119 -57 199 -58 174z"/>
<path d="M1021 1363 c-16 -18 -8 -28 13 -16 8 4 12 13 8 20 -5 8 -11 7 -21 -4z"/>
<path d="M7027 1373 c-9 -2 -15 -9 -12 -14 4 -5 -3 -9 -14 -9 -21 0 -29 -16
-11 -22 5 -1 11 -23 13 -47 2 -25 9 -47 15 -49 7 -2 12 -21 12 -42 0 -24 5
-40 15 -44 8 -3 15 -10 15 -16 0 -6 -4 -8 -10 -5 -5 3 -7 0 -4 -8 3 -8 15 -20
27 -26 21 -11 21 -11 -3 -5 -20 5 -23 4 -12 -7 6 -7 12 -25 12 -39 0 -24 21
-110 37 -150 3 -8 7 -24 8 -34 1 -11 7 -22 13 -24 6 -2 8 -10 5 -19 -4 -11 -2
-14 5 -9 22 14 34 -5 16 -25 -14 -16 -15 -25 -6 -57 6 -20 16 -57 22 -82 12
-43 13 -44 22 -20 l9 25 19 -25 c10 -13 16 -28 14 -32 -6 -9 15 -22 41 -25 16
-3 15 1 -9 20 -19 15 -25 26 -18 31 12 7 10 23 -18 121 -11 38 -26 93 -33 120
-13 44 -17 50 -38 46 l-24 -3 25 20 c20 17 23 23 13 33 -7 7 -13 23 -13 35 0
13 -6 29 -14 37 -9 8 -12 24 -9 36 6 24 -21 61 -44 61 -19 0 -16 17 4 29 16 8
16 14 5 53 -8 24 -16 55 -19 70 -3 15 -9 26 -13 23 -5 -3 -6 4 -3 15 3 11 0
27 -7 35 -6 8 -9 19 -5 25 6 10 2 11 -28 3z m93 -283 c0 -5 -4 -10 -10 -10 -5
0 -10 5 -10 10 0 6 5 10 10 10 6 0 10 -4 10 -10z m7 -85 c0 -8 -4 -12 -9 -9
-4 3 -8 9 -8 15 0 5 4 9 8 9 5 0 9 -7 9 -15z m43 -129 c0 -3 -4 -8 -10 -11 -5
-3 -10 -1 -10 4 0 6 5 11 10 11 6 0 10 -2 10 -4z"/>
<path d="M7101 1369 c-1 -14 31 -139 74 -294 9 -33 34 -132 57 -219 22 -88 44
-170 49 -183 9 -25 43 -31 69 -12 12 8 9 10 -13 6 -15 -2 -29 -1 -32 3 -5 9
-107 376 -146 525 -30 119 -57 199 -58 174z"/>
<path d="M961 1354 c0 -11 3 -14 6 -6 3 7 2 16 -1 19 -3 4 -6 -2 -5 -13z"/>
<path d="M970 1309 c0 -7 8 -18 18 -26 15 -12 14 -13 -11 -7 -27 6 -28 5 -16
-14 16 -25 48 -35 66 -20 18 15 16 23 -11 52 -25 27 -46 34 -46 15z"/>
<path d="M2410 1010 c-36 -10 -129 -35 -207 -56 -78 -21 -140 -41 -137 -46 3
-4 -2 -5 -10 -2 -8 3 -103 -18 -211 -47 -169 -45 -199 -56 -208 -76 -5 -12
-14 -20 -19 -17 -4 3 -6 10 -3 15 4 5 -4 7 -17 5 -13 -3 -32 -5 -43 -5 -40 -2
-48 -15 -31 -50 9 -17 21 -31 27 -31 24 0 99 23 99 30 0 5 10 6 21 3 18 -5 20
-3 14 15 -5 18 -3 21 12 15 10 -4 21 -10 24 -15 9 -13 38 2 44 23 4 11 11 17
16 13 6 -4 6 -11 -1 -19 -9 -11 -5 -12 22 -4 18 5 146 39 283 75 138 36 270
72 295 79 25 6 75 20 113 31 69 19 80 31 50 55 -15 12 -16 12 -8 -1 4 -8 -2
-5 -14 8 -26 26 -27 26 -111 2z m70 -10 c-19 -13 -30 -13 -30 0 0 6 10 10 23
10 18 0 19 -2 7 -10z"/>
<path d="M8810 1010 c-36 -10 -129 -35 -207 -56 -78 -21 -140 -41 -137 -46 3
-4 -2 -5 -10 -2 -8 3 -103 -18 -211 -47 -169 -45 -199 -56 -208 -76 -5 -12
-14 -20 -19 -17 -4 3 -6 10 -3 15 4 5 -4 7 -17 5 -13 -3 -32 -5 -43 -5 -40 -2
-48 -15 -31 -50 9 -17 21 -31 27 -31 24 0 99 23 99 30 0 5 10 6 21 3 18 -5 20
-3 14 15 -5 18 -3 21 12 15 10 -4 21 -10 24 -15 9 -13 38 2 44 23 4 11 11 17
16 13 6 -4 6 -11 -1 -19 -9 -11 -5 -12 22 -4 18 5 146 39 283 75 138 36 270
72 295 79 25 6 75 20 113 31 69 19 80 31 50 55 -15 12 -16 12 -8 -1 4 -8 -2
-5 -14 8 -26 26 -27 26 -111 2z m70 -10 c-19 -13 -30 -13 -30 0 0 6 10 10 23
10 18 0 19 -2 7 -10z"/>
<path d="M1452 753 c-24 -5 -42 -14 -104 -52 -38 -23 -43 -41 -10 -36 9 1 11
0 5 -2 -28 -10 -12 -24 20 -18 30 6 48 11 122 33 18 6 29 15 26 23 -2 8 -4 23
-5 34 -1 21 -16 26 -54 18z m-22 -73 c0 -5 -4 -10 -10 -10 -5 0 -10 5 -10 10
0 6 5 10 10 10 6 0 10 -4 10 -10z"/>
<path d="M7852 753 c-24 -5 -42 -14 -104 -52 -38 -23 -43 -41 -10 -36 9 1 11
0 5 -2 -28 -10 -12 -24 20 -18 30 6 48 11 122 33 18 6 29 15 26 23 -2 8 -4 23
-5 34 -1 21 -16 26 -54 18z m-22 -73 c0 -5 -4 -10 -10 -10 -5 0 -10 5 -10 10
0 6 5 10 10 10 6 0 10 -4 10 -10z"/>
<path d="M1100 714 c-30 -9 -72 -20 -93 -25 -21 -5 -35 -14 -32 -19 3 -5 26
-2 53 6 26 8 68 19 95 25 26 6 47 15 47 20 0 11 -1 11 -70 -7z"/>
<path d="M7500 714 c-30 -9 -72 -20 -93 -25 -21 -5 -35 -14 -32 -19 3 -5 26
-2 53 6 26 8 68 19 95 25 26 6 47 15 47 20 0 11 -1 11 -70 -7z"/>
<path d="M1268 699 c-10 -5 -18 -17 -18 -24 0 -21 34 -19 53 3 26 28 1 43 -35
21z m13 -22 c-10 -9 -11 -8 -5 6 3 10 9 15 12 12 3 -3 0 -11 -7 -18z"/>
<path d="M7668 699 c-10 -5 -18 -17 -18 -24 0 -21 34 -19 53 3 26 28 1 43 -35
21z m13 -22 c-10 -9 -11 -8 -5 6 3 10 9 15 12 12 3 -3 0 -11 -7 -18z"/>
<path d="M1180 679 c-19 -6 -42 -13 -50 -16 -8 -3 -18 -6 -22 -5 -4 1 -20 -3
-35 -10 -15 -6 -32 -11 -38 -10 -5 1 -30 -5 -55 -13 -25 -7 -39 -14 -32 -14
19 -1 14 -49 -7 -60 -10 -6 -22 -7 -26 -3 -5 4 -5 1 -1 -6 4 -7 18 -10 34 -7
56 12 107 30 114 40 5 7 8 6 8 -1 0 -11 125 17 139 31 3 4 11 24 17 46 13 43
13 44 -46 28z m-29 -62 c-13 -13 -15 1 -4 30 7 17 8 17 11 -1 2 -10 -1 -23 -7
-29z m59 17 c0 -2 -7 -4 -15 -4 -8 0 -15 4 -15 10 0 5 7 7 15 4 8 -4 15 -8 15
-10z m-130 -4 c0 -5 -5 -10 -11 -10 -5 0 -7 5 -4 10 3 6 8 10 11 10 2 0 4 -4
4 -10z m22 -22 c-8 -8 -9 -4 -5 13 4 13 8 18 11 10 2 -7 -1 -18 -6 -23z"/>
<path d="M7580 679 c-19 -6 -42 -13 -50 -16 -8 -3 -18 -6 -22 -5 -4 1 -20 -3
-35 -10 -15 -6 -32 -11 -38 -10 -5 1 -30 -5 -55 -13 -25 -7 -39 -14 -32 -14
19 -1 14 -49 -7 -60 -10 -6 -22 -7 -26 -3 -5 4 -5 1 -1 -6 4 -7 18 -10 34 -7
56 12 107 30 114 40 5 7 8 6 8 -1 0 -11 125 17 139 31 3 4 11 24 17 46 13 43
13 44 -46 28z m-29 -62 c-13 -13 -15 1 -4 30 7 17 8 17 11 -1 2 -10 -1 -23 -7
-29z m59 17 c0 -2 -7 -4 -15 -4 -8 0 -15 4 -15 10 0 5 7 7 15 4 8 -4 15 -8 15
-10z m-130 -4 c0 -5 -5 -10 -11 -10 -5 0 -7 5 -4 10 3 6 8 10 11 10 2 0 4 -4
4 -10z m22 -22 c-8 -8 -9 -4 -5 13 4 13 8 18 11 10 2 -7 -1 -18 -6 -23z"/>
<path d="M1240 636 c0 -25 17 -27 41 -6 l24 19 -32 1 c-22 0 -33 -5 -33 -14z"/>
<path d="M7640 636 c0 -25 17 -27 41 -6 l24 19 -32 1 c-22 0 -33 -5 -33 -14z"/>
<path d="M800 611 c0 -5 5 -13 10 -16 6 -3 10 -2 10 4 0 5 -4 13 -10 16 -5 3
-10 2 -10 -4z"/>
<path d="M7200 611 c0 -5 5 -13 10 -16 6 -3 10 -2 10 4 0 5 -4 13 -10 16 -5 3
-10 2 -10 -4z"/>
<path d="M915 600 c3 -5 8 -10 11 -10 2 0 4 5 4 10 0 6 -5 10 -11 10 -5 0 -7
-4 -4 -10z"/>
<path d="M7315 600 c3 -5 8 -10 11 -10 2 0 4 5 4 10 0 6 -5 10 -11 10 -5 0 -7
-4 -4 -10z"/>
<path d="M816 531 c-4 -7 -5 -15 -2 -18 9 -9 19 4 14 18 -4 11 -6 11 -12 0z"/>
<path d="M7216 531 c-4 -7 -5 -15 -2 -18 9 -9 19 4 14 18 -4 11 -6 11 -12 0z"/>
</g>
</svg>
