<?xml version="1.0" encoding="UTF-8"?>
<!DOCTYPE svg PUBLIC "-//W3C//DTD SVG 1.1//EN" "http://www.w3.org/Graphics/SVG/1.1/DTD/svg11.dtd">
<!-- Creator: CorelDRAW -->
<svg xmlns="http://www.w3.org/2000/svg" xml:space="preserve" width="297mm" height="210mm" version="1.1" style="shape-rendering:geometricPrecision; text-rendering:geometricPrecision; image-rendering:optimizeQuality; fill-rule:evenodd; clip-rule:evenodd"
viewBox="0 0 29700 21000"
 xmlns:xlink="http://www.w3.org/1999/xlink"
 xmlns:xodm="http://www.corel.com/coreldraw/odm/2003">
 <defs>
  <style type="text/css">
   <![CDATA[
    .fil0 {fill:black;fill-rule:nonzero}
   ]]>
  </style>
 </defs>
 <g id="Layer_x0020_1">
  <metadata id="CorelCorpID_0Corel-Layer"/>
  <g id="_3095959382544">
   <path class="fil0" d="M8640.81 3721.63l55.13 59.72 6.89 1594.16 4.6 1594.16 10293.1 0c11223.42,0 10419.45,-9.19 10472.28,126.33 29.86,80.4 32.16,6739.57 0,6819.96 -11.48,32.16 -52.83,73.51 -89.58,94.18 -62.02,29.86 -1116.37,34.46 -10371.21,34.46l-10304.59 0 -4.6 1594.16 -6.89 1594.15 -55.13 59.73c-66.61,71.2 -192.95,80.39 -277.94,20.67 -32.16,-22.97 -1715.9,-1398.91 -3744.2,-3059.68 -2028.3,-1660.77 -3859.06,-3160.74 -4070.38,-3330.73 -209.04,-172.28 -399.69,-344.56 -420.36,-383.61 -43.65,-73.51 -36.75,-149.31 18.37,-218.22 25.27,-34.46 8099.42,-6537.42 8216.57,-6620.12 84.99,-59.72 211.33,-50.53 277.94,20.68z"/>
  </g>
 </g>
</svg>
